# xmcd
#
# Track frame offsets: 
#        150
#        21523
#        47170
#        71550
#        87620
#        109868
#        129423
#        149590
#        168088
#        187308
#
# Disc length: 2833 seconds
#
# Revision: 0
# Processed by: cddbd v1.5.2PL0 Copyright (c) Steve Scherf et al.
# Submitted via: ExactAudioCopy v1.0b3
#
DISCID=980b0f0a
DTITLE=Che Linh - Nho Nguoi Yeu
DYEAR=1991
DGENRE=
TTITLE0=Nho nguoi yeu
TTITLE1=Vong gac dem suong
TTITLE2=Linh nghi gi
TTITLE3=Ke o mien xa
TTITLE4=Nhung ngay xua than ai
TTITLE5=Minh nho nhau khong
TTITLE6=Tinh nao trong mat em (Doi mat nguoi xua)
TTITLE7=Xin lam nguoi xa la
TTITLE8=Doan tuyet
TTITLE9=Thu ve em gai thanh do
EXTD=
EXTT0=
EXTT1=
EXTT2=
EXTT3=
EXTT4=
EXTT5=
EXTT6=
EXTT7=
EXTT8=
EXTT9=
PLAYORDER=
